<?xml version="1.0" standalone="no"?>
<!DOCTYPE svg PUBLIC "-//W3C//DTD SVG 20010904//EN"
 "http://www.w3.org/TR/2001/REC-SVG-20010904/DTD/svg10.dtd">
<svg version="1.0" xmlns="http://www.w3.org/2000/svg"
 width="80.000000pt" height="80.000000pt" viewBox="0 0 80.000000 80.000000"
 preserveAspectRatio="xMidYMid meet">

<g transform="translate(0.000000,80.000000) scale(0.100000,-0.100000)"
fill="#000000" stroke="none">
<path d="M140 579 c-51 -64 -51 -65 -76 -279 -5 -47 -3 -59 16 -82 33 -43 65
-37 121 21 43 45 51 49 82 44 41 -6 84 18 93 53 7 26 44 34 44 10 0 -7 12 -26
27 -41 23 -23 34 -26 66 -22 36 5 42 2 86 -44 55 -57 88 -64 120 -23 24 31 25
46 10 163 -15 123 -24 151 -62 194 -40 44 -87 50 -123 16 -21 -19 -33 -21
-141 -20 -100 1 -122 5 -145 21 -42 31 -88 26 -118 -11z m78 -51 c-2 -13 -7
-23 -13 -23 -5 0 -11 10 -13 23 -2 15 2 22 13 22 11 0 15 -7 13 -22z m396 7
c3 -9 -1 -18 -10 -22 -19 -7 -39 11 -30 26 10 16 33 13 40 -4z m-429 -50 c0
-5 -10 -11 -22 -13 -16 -2 -23 2 -23 13 0 11 7 15 23 13 12 -2 22 -7 22 -13z
m85 0 c0 -16 -35 -21 -44 -6 -8 12 4 21 26 21 10 0 18 -7 18 -15z m-50 -46 c0
-10 -7 -19 -15 -19 -15 0 -21 31 -9 43 11 10 24 -3 24 -24z m160 21 c0 -5 -7
-10 -15 -10 -8 0 -15 5 -15 10 0 6 7 10 15 10 8 0 15 -4 15 -10z m60 0 c0 -5
-4 -10 -10 -10 -5 0 -10 5 -10 10 0 6 5 10 10 10 6 0 10 -4 10 -10z m165 -18
c0 -18 -20 -15 -23 4 -3 10 1 15 10 12 7 -3 13 -10 13 -16z m-263 -29 c37 -33
10 -93 -43 -93 -28 0 -59 31 -59 59 0 44 67 66 102 34z m205 -9 c15 -24 15
-29 2 -53 -27 -48 -109 -32 -109 22 0 56 76 77 107 31z"/>
<path d="M276 407 c-22 -16 -18 -55 7 -71 39 -24 79 44 41 71 -10 7 -21 13
-24 13 -3 0 -14 -6 -24 -13z"/>
<path d="M476 407 c-38 -27 2 -95 42 -71 24 16 28 55 6 71 -10 7 -21 13 -24
13 -3 0 -14 -6 -24 -13z"/>
</g>
</svg>
